<svg xmlns="http://www.w3.org/2000/svg" width="480" height="76" viewBox="0 0 480 76" fill="none"><path d="M100.847 71.5667H92.2081V5.06666H100.847V71.5667Z" fill="white"></path><path d="M113.288 25.9667H129.187C135.988 25.9667 140.859 27.0117 143.8 29.1017C146.434 30.9383 148.088 33.155 148.762 35.7517C149.497 38.285 149.865 41.6417 149.865 45.8217V71.5667H141.778V45.9167C141.778 44.7767 141.747 43.8267 141.686 43.0667C141.625 42.2433 141.41 41.23 141.042 40.0267C140.675 38.76 140.154 37.7467 139.48 36.9867C138.806 36.1633 137.826 35.4667 136.539 34.8967C135.253 34.2633 133.69 33.9467 131.852 33.9467H121.375V71.5667H113.288V25.9667Z" fill="white"></path><path d="M195.397 5.06666H203.668V71.5667H182.071C175.393 71.5667 169.97 69.3817 165.804 65.0117C161.638 60.5783 159.555 55.005 159.555 48.2917C159.555 41.705 161.699 36.195 165.988 31.7617C170.338 27.265 175.485 25.0167 181.428 25.0167C185.226 25.0167 188.78 25.9667 192.088 27.8667V36.4167C189.025 34.1367 185.471 32.9967 181.428 32.9967C177.751 32.9967 174.627 34.4217 172.054 37.2717C169.542 40.0583 168.286 43.7317 168.286 48.2917C168.286 52.915 169.48 56.62 171.87 59.4067C174.32 62.1933 177.721 63.5867 182.071 63.5867H195.397V5.06666Z" fill="white"></path><path d="M226.64 71.5667H218.552V33.9467H211.016L214.692 25.9667H226.64V71.5667ZM218.185 16.4667C217.388 15.39 216.99 14.2183 216.99 12.9517C216.99 11.685 217.388 10.545 218.185 9.53166C218.981 8.455 220.207 7.91666 221.861 7.91666C223.515 7.91666 224.74 8.455 225.537 9.53166C226.333 10.545 226.732 11.685 226.732 12.9517C226.732 14.2183 226.333 15.39 225.537 16.4667C224.74 17.48 223.515 17.9867 221.861 17.9867C220.207 17.9867 218.981 17.48 218.185 16.4667Z" fill="white"></path><path d="M238.924 53.5167V5.06666H247.195V53.5167C247.195 55.7967 247.441 57.665 247.931 59.1217C248.482 60.515 249.309 61.5283 250.412 62.1617C251.515 62.7317 252.587 63.1117 253.629 63.3017C254.67 63.4917 256.049 63.5867 257.764 63.5867V71.5667C250.902 71.5667 246.031 70.205 243.152 67.4817C240.333 64.7583 238.924 60.1033 238.924 53.5167Z" fill="white"></path><path d="M288.233 44.7767V53.3267C285.904 51.49 283.055 50.5717 279.686 50.5717C276.806 50.5717 274.57 51.1733 272.977 52.3767C271.384 53.5167 270.587 55.1633 270.587 57.3167C270.587 61.4967 273.59 63.5867 279.594 63.5867H291.725V45.4417C291.725 37.7783 288.11 33.9467 280.88 33.9467H266.176V25.9667H281.34C287.283 25.9667 291.847 27.4867 295.033 30.5267C298.219 33.5667 299.812 37.9367 299.812 43.6367V71.5667H279.318C274.11 71.5667 269.975 70.3633 266.911 67.9567C263.848 65.55 262.316 62.035 262.316 57.4117C262.316 52.7883 263.94 49.2733 267.187 46.8667C270.434 44.46 274.509 43.2567 279.41 43.2567C282.167 43.2567 285.108 43.7633 288.233 44.7767Z" fill="white"></path><path d="M309.915 5.06666H318.186V48.7667C318.186 53.77 319.411 57.665 321.862 60.4517C324.374 63.175 327.805 64.5367 332.155 64.5367C336.689 64.5367 340.242 63.2067 342.816 60.5467C345.389 57.8233 346.676 53.8967 346.676 48.7667C346.676 43.89 345.266 40.0583 342.448 37.2717C339.691 34.4217 336.046 32.9967 331.512 32.9967C327.652 32.9967 324.313 34.1367 321.495 36.4167V27.8667C324.864 25.9667 328.51 25.0167 332.431 25.0167C338.925 25.0167 344.286 27.2017 348.514 31.5717C352.802 35.8783 354.947 41.61 354.947 48.7667C354.947 56.3033 352.71 62.1617 348.238 66.3417C343.827 70.4583 338.251 72.5167 331.512 72.5167C325.079 72.5167 319.871 70.3633 315.888 66.0567C311.906 61.75 309.915 55.9867 309.915 48.7667V5.06666Z" fill="white"></path><path d="M395.175 25.9667V33.9467H378.908C377.131 33.9467 375.6 34.295 374.313 34.9917C373.026 35.6883 372.383 36.67 372.383 37.9367C372.383 38.6967 372.536 39.3933 372.842 40.0267C373.149 40.5967 373.486 41.0717 373.853 41.4517C374.282 41.8317 374.895 42.2433 375.691 42.6867C376.549 43.0667 377.192 43.3517 377.621 43.5417C378.112 43.6683 380.072 44.3017 383.503 45.4417C386.934 46.5817 389.477 47.5317 391.131 48.2917C392.785 49.0517 394.041 50.0967 394.899 51.4267C395.818 52.6933 396.4 53.96 396.645 55.2267C396.89 56.43 397.013 57.6333 397.013 58.8367C397.013 67.3233 391.376 71.5667 380.103 71.5667H364.204V63.5867H380.103C385.862 63.5867 388.741 62.0033 388.741 58.8367C388.741 57.3167 387.884 56.05 386.168 55.0367C384.514 54.0233 382.462 53.1683 380.011 52.4717C377.621 51.775 375.201 50.9833 372.751 50.0967C370.361 49.1467 368.309 47.6583 366.593 45.6317C364.939 43.5417 364.112 40.9767 364.112 37.9367C364.112 34.0733 365.552 31.1283 368.431 29.1017C371.311 27.0117 374.803 25.9667 378.908 25.9667H395.175Z" fill="white"></path><path d="M403.273 70.8067C402.171 69.6667 401.619 68.2733 401.619 66.6267C401.619 64.98 402.171 63.5867 403.273 62.4467C404.376 61.3067 405.724 60.7367 407.317 60.7367C408.91 60.7367 410.258 61.3067 411.361 62.4467C412.464 63.5867 413.015 64.98 413.015 66.6267C413.015 68.2733 412.464 69.6667 411.361 70.8067C410.258 71.9467 408.91 72.5167 407.317 72.5167C405.724 72.5167 404.376 71.9467 403.273 70.8067Z" fill="white"></path><path d="M446.278 44.7767V53.3267C443.95 51.49 441.101 50.5717 437.732 50.5717C434.852 50.5717 432.616 51.1733 431.023 52.3767C429.43 53.5167 428.633 55.1633 428.633 57.3167C428.633 61.4967 431.635 63.5867 437.64 63.5867H449.771V45.4417C449.771 37.7783 446.156 33.9467 438.926 33.9467H424.222V25.9667H439.386C445.329 25.9667 449.893 27.4867 453.079 30.5267C456.265 33.5667 457.858 37.9367 457.858 43.6367V71.5667H437.364C432.156 71.5667 428.021 70.3633 424.957 67.9567C421.894 65.55 420.362 62.035 420.362 57.4117C420.362 52.7883 421.986 49.2733 425.233 46.8667C428.48 44.46 432.554 43.2567 437.456 43.2567C440.213 43.2567 443.154 43.7633 446.278 44.7767Z" fill="white"></path><path d="M479.908 71.5667H471.821V33.9467H464.285L467.961 25.9667H479.908V71.5667ZM471.453 16.4667C470.657 15.39 470.258 14.2183 470.258 12.9517C470.258 11.685 470.657 10.545 471.453 9.53166C472.25 8.455 473.475 7.91666 475.129 7.91666C476.783 7.91666 478.009 8.455 478.805 9.53166C479.602 10.545 480 11.685 480 12.9517C480 14.2183 479.602 15.39 478.805 16.4667C478.009 17.48 476.783 17.9867 475.129 17.9867C473.475 17.9867 472.25 17.48 471.453 16.4667Z" fill="white"></path><path d="M19.8163 0V48.5695L29.6022 38V9.56291H56.7579L65.5651 0H19.8163Z" fill="url(#paint0_linear_102_272)"></path><path d="M70.458 51.8411V3.27152L60.6722 13.8411V42.2781H33.5165L24.7092 51.8411H70.458Z" fill="url(#paint1_linear_102_272)"></path><path d="M0 23.404H10.0305V62.4106L0 72.7285V23.404Z" fill="url(#paint2_linear_102_272)"></path><path d="M53.0882 76V65.6821H15.1681L5.13757 76H53.0882Z" fill="url(#paint3_linear_102_272)"></path><defs><linearGradient id="paint0_linear_102_272" x1="63.608" y1="-1.24303e-06" x2="2.96085" y2="69.2755" gradientUnits="userSpaceOnUse"><stop stop-color="#E84350"></stop><stop offset="1" stop-color="#A21823"></stop></linearGradient><linearGradient id="paint1_linear_102_272" x1="63.608" y1="-1.24303e-06" x2="2.96085" y2="69.2755" gradientUnits="userSpaceOnUse"><stop stop-color="#E84350"></stop><stop offset="1" stop-color="#A21823"></stop></linearGradient><linearGradient id="paint2_linear_102_272" x1="63.608" y1="-1.24303e-06" x2="2.96085" y2="69.2755" gradientUnits="userSpaceOnUse"><stop stop-color="#E84350"></stop><stop offset="1" stop-color="#A21823"></stop></linearGradient><linearGradient id="paint3_linear_102_272" x1="63.608" y1="-1.24303e-06" x2="2.96085" y2="69.2755" gradientUnits="userSpaceOnUse"><stop stop-color="#E84350"></stop><stop offset="1" stop-color="#A21823"></stop></linearGradient></defs></svg>